<?xml version="1.0" encoding="utf-8"?>
<!-- Generator: Adobe Illustrator 24.3.0, SVG Export Plug-In . SVG Version: 6.00 Build 0)  -->
<svg version="1.1" id="illustrations" xmlns="http://www.w3.org/2000/svg" xmlns:xlink="http://www.w3.org/1999/xlink" x="0px"
	 y="0px" viewBox="0 0 2500 2500" style="enable-background:new 0 0 2500 2500;" xml:space="preserve">
<style type="text/css">
	.st0{fill:#F299AC;}
	.st1{fill:#98DAF4;}
	.st2{fill:#B0ECFF;}
	.st3{fill:#F4D862;}
	.st4{fill:#FFFFFF;}
	.st5{fill:#82C0E0;}
	.st6{fill:none;stroke:#B6FCFF;stroke-width:4.4199;stroke-linecap:round;stroke-linejoin:round;stroke-miterlimit:10;}
	.st7{fill:none;stroke:#1B2638;stroke-width:4.4199;stroke-miterlimit:10;}
	.st8{fill:#FFF27D;}
	.st9{fill:none;stroke:#1B2638;stroke-width:4.4199;stroke-linecap:round;stroke-linejoin:round;stroke-miterlimit:10;}
	.st10{fill:#65ABE0;}
	.st11{fill:#1B2638;}
	.st12{fill:#4B8CC6;}
	.st13{fill:#DAE4EA;}
	.st14{fill:#F9B9CE;}
	.st15{fill:#253544;}
	.st16{fill:none;stroke:#FFFFFF;stroke-width:4.4199;stroke-linecap:round;stroke-linejoin:round;}
	.st17{fill:none;stroke:#FFFFFF;stroke-width:4.4199;stroke-linecap:round;stroke-linejoin:round;stroke-dasharray:13.494,13.494;}
	.st18{fill:#E5889A;}
	.st19{fill:none;stroke:#FFFFFF;stroke-width:4.4199;stroke-linecap:round;stroke-linejoin:round;stroke-miterlimit:10;}
	.st20{fill:none;stroke:#98DAF4;stroke-width:4.4199;stroke-miterlimit:10;}
	.st21{fill:none;stroke:#65ABE0;stroke-width:4.4199;stroke-miterlimit:10;}
	.st22{fill:#FFFFFF;stroke:#2A353F;stroke-width:3.3149;stroke-linecap:round;stroke-linejoin:round;stroke-miterlimit:10;}
	.st23{fill:none;stroke:#B6FCFF;stroke-width:4.4199;stroke-miterlimit:10;}
	.st24{fill:none;stroke:#1B2638;stroke-width:1.105;stroke-linecap:round;stroke-linejoin:round;stroke-miterlimit:10;}
	.st25{fill:#B6FCFF;}
	.st26{fill:none;stroke:#98DAF4;stroke-width:4.4199;stroke-linecap:round;stroke-linejoin:round;stroke-miterlimit:10;}
	.st27{fill:none;stroke:#B0ECFF;stroke-width:4.4199;stroke-miterlimit:10;}
	.st28{fill:none;stroke:#B0ECFF;stroke-width:4;stroke-linecap:round;stroke-linejoin:round;stroke-miterlimit:10;}
	.st29{fill:none;stroke:#1B2638;stroke-width:4;stroke-linecap:round;stroke-linejoin:round;stroke-miterlimit:10;}
	.st30{fill:none;stroke:#98DAF4;stroke-width:4;stroke-miterlimit:10;}
	.st31{fill:none;stroke:#65ABE0;stroke-width:4;stroke-miterlimit:10;}
	.st32{fill:none;stroke:#FFFFFF;stroke-width:4;stroke-linecap:round;stroke-linejoin:round;stroke-miterlimit:10;}
	.st33{fill:none;stroke:#B6FCFF;stroke-width:4;stroke-linecap:round;stroke-linejoin:round;stroke-miterlimit:10;}
	.st34{fill:none;stroke:#1B2638;stroke-width:4;stroke-miterlimit:10;}
	.st35{fill:none;stroke:#1B2638;stroke-width:3;stroke-linecap:round;stroke-linejoin:round;stroke-miterlimit:10;}
	.st36{fill:#FFFFFF;stroke:#1B2638;stroke-width:4;stroke-linecap:round;stroke-linejoin:round;stroke-miterlimit:10;}
	.st37{fill:none;stroke:#65ABE0;stroke-width:4;stroke-linecap:round;stroke-linejoin:round;}
	.st38{fill:none;stroke:#65ABE0;stroke-width:4;stroke-linecap:round;stroke-linejoin:round;stroke-dasharray:12.2119,12.2119;}
	.st39{fill:none;stroke:#FFFFFF;stroke-width:4;stroke-miterlimit:10;}
	.st40{fill:#F4D862;stroke:#1B2638;stroke-width:4;stroke-linecap:round;stroke-linejoin:round;stroke-miterlimit:10;}
	.st41{fill:none;stroke:#65ABE0;stroke-width:4;stroke-linecap:round;stroke-linejoin:round;stroke-dasharray:11.8323,11.8323;}
	.st42{fill:none;stroke:#F4D862;stroke-width:5;stroke-miterlimit:10;}
	.st43{fill:none;stroke:#FFF27D;stroke-width:4;stroke-linecap:round;stroke-linejoin:round;stroke-miterlimit:10;}
	.st44{fill:none;stroke:#65ABE0;stroke-width:4;stroke-linecap:round;stroke-linejoin:round;stroke-dasharray:11.8497,11.8497;}
	.st45{fill:none;stroke:#1B2638;stroke-width:4.7246;stroke-linecap:round;stroke-linejoin:round;stroke-miterlimit:10;}
	.st46{fill:none;stroke:#1B2638;stroke-width:5.9057;stroke-linecap:round;stroke-linejoin:round;stroke-miterlimit:10;}
	.st47{fill:#EAB853;}
	.st48{fill:none;stroke:#98DAF4;stroke-width:4.7246;stroke-miterlimit:10;}
	.st49{fill:none;stroke:#65ABE0;stroke-width:4.7246;stroke-miterlimit:10;}
	.st50{fill:none;stroke:#65ABE0;stroke-width:4.7246;stroke-linecap:round;stroke-linejoin:round;}
	
		.st51{fill:none;stroke:#65ABE0;stroke-width:4.7246;stroke-linecap:round;stroke-linejoin:round;stroke-dasharray:14.7632,14.7632;}
	.st52{fill:none;stroke:#98DAF4;stroke-width:4.7246;stroke-linecap:round;stroke-linejoin:round;stroke-miterlimit:10;}
	.st53{fill:none;stroke:#FFF27D;stroke-width:4.7246;stroke-linecap:round;stroke-linejoin:round;stroke-miterlimit:10;}
	.st54{fill:none;stroke:#FFFFFF;stroke-width:5.9057;stroke-linecap:round;stroke-linejoin:round;stroke-miterlimit:10;}
	.st55{fill:none;stroke:#65ABE0;stroke-width:4.8739;stroke-miterlimit:10;}
	.st56{fill:none;stroke:#1B2638;stroke-width:4.8739;stroke-linecap:round;stroke-linejoin:round;stroke-miterlimit:10;}
	.st57{fill:none;stroke:#1B2638;stroke-width:4.8739;stroke-miterlimit:10;}
	.st58{fill:none;stroke:#B6FCFF;stroke-width:4.8739;stroke-linecap:round;stroke-linejoin:round;stroke-miterlimit:10;}
	.st59{fill:none;stroke:#FFF27D;stroke-width:6.0924;stroke-linecap:round;stroke-linejoin:round;stroke-miterlimit:10;}
	.st60{fill:none;stroke:#98DAF4;stroke-width:4.8739;stroke-miterlimit:10;}
	.st61{fill:none;stroke:#FFFFFF;stroke-width:4.8739;stroke-linecap:round;stroke-linejoin:round;stroke-miterlimit:10;}
	.st62{fill:none;stroke:#000000;stroke-width:1.2185;stroke-linecap:round;stroke-linejoin:round;stroke-miterlimit:10;}
	.st63{fill:none;stroke:#B0ECFF;stroke-width:4.8739;stroke-miterlimit:10;}
	.st64{fill:none;stroke:#1B2638;stroke-width:4.8739;stroke-linecap:round;stroke-linejoin:round;}
	
		.st65{fill:none;stroke:#1B2638;stroke-width:4.8739;stroke-linecap:round;stroke-linejoin:round;stroke-dasharray:13.9257,13.9257;}
	.st66{fill:none;stroke:#FFFFFF;stroke-width:6.0924;stroke-linecap:round;stroke-linejoin:round;stroke-miterlimit:10;}
	.st67{fill:none;stroke:#1B2638;stroke-width:4.4753;stroke-linecap:round;stroke-linejoin:round;stroke-miterlimit:10;}
	.st68{fill:none;stroke:#FFF27D;stroke-width:11.1884;stroke-linecap:round;stroke-linejoin:round;stroke-miterlimit:10;}
	.st69{fill:none;stroke:#FFFFFF;stroke-width:3.3565;stroke-miterlimit:10;}
	.st70{fill:none;stroke:#65ABE0;stroke-width:4.4753;stroke-miterlimit:10;}
	.st71{fill:none;stroke:#FFFFFF;stroke-width:4.4753;stroke-linecap:round;stroke-linejoin:round;stroke-miterlimit:10;}
	.st72{fill:none;stroke:#1B2638;stroke-width:3.3565;stroke-linecap:round;stroke-linejoin:round;stroke-miterlimit:10;}
	.st73{fill:none;stroke:#FFFFFF;stroke-width:3.3565;stroke-linecap:round;stroke-linejoin:round;stroke-miterlimit:10;}
	.st74{fill:none;stroke:#1B2638;stroke-width:5.0317;stroke-linecap:round;stroke-linejoin:round;stroke-miterlimit:10;}
	.st75{fill:none;stroke:#1B2638;stroke-width:4.4043;stroke-linecap:round;stroke-linejoin:round;stroke-miterlimit:10;}
	.st76{fill:none;stroke:#1B2638;stroke-width:4.9518;stroke-linecap:round;stroke-linejoin:round;stroke-miterlimit:10;}
	.st77{fill:none;stroke:#FFFFFF;stroke-width:4.9518;stroke-linecap:round;stroke-linejoin:round;stroke-miterlimit:10;}
	.st78{fill:none;stroke:#000000;stroke-width:1.1011;stroke-miterlimit:10;}
	.st79{fill:none;stroke:#98DAF4;stroke-width:12.1119;stroke-linecap:round;stroke-linejoin:round;stroke-miterlimit:10;}
	.st80{fill:none;stroke:#FFFFFF;stroke-width:4.4043;stroke-linecap:round;stroke-linejoin:round;stroke-miterlimit:10;}
	.st81{fill:none;stroke:#B6FCFF;stroke-width:4.9518;stroke-linecap:round;stroke-linejoin:round;stroke-miterlimit:10;}
	.st82{fill:none;stroke:#1B2638;stroke-width:15.4151;stroke-linecap:round;stroke-linejoin:round;stroke-miterlimit:10;}
	.st83{fill:none;stroke:#98DAF4;stroke-width:4.4043;stroke-miterlimit:10;}
	.st84{fill:none;stroke:#65ABE0;stroke-width:4.4043;stroke-miterlimit:10;}
	.st85{fill:none;stroke:#FFF27D;stroke-width:14.314;stroke-linecap:round;stroke-linejoin:round;stroke-miterlimit:10;}
	.st86{fill:none;stroke:#FFF27D;stroke-width:4.3371;stroke-linecap:round;stroke-linejoin:round;stroke-miterlimit:10;}
	.st87{fill:none;stroke:#65ABE0;stroke-width:4.3371;stroke-linecap:round;stroke-linejoin:round;stroke-miterlimit:10;}
	.st88{fill:#F9B7D2;}
	.st89{fill:none;stroke:#F299AC;stroke-width:6.5057;stroke-linecap:round;stroke-linejoin:round;stroke-miterlimit:10;}
	.st90{fill:none;stroke:#98DAF4;stroke-width:6.5057;stroke-linecap:round;stroke-linejoin:round;stroke-miterlimit:10;}
	.st91{fill:none;stroke:#98DAF4;stroke-width:3.2528;stroke-miterlimit:10;}
	.st92{fill:none;stroke:#F4D862;stroke-width:8.6743;stroke-linecap:round;stroke-linejoin:round;stroke-miterlimit:10;}
	.st93{fill:none;stroke:#1B2638;stroke-width:5.4214;stroke-linecap:round;stroke-linejoin:round;stroke-miterlimit:10;}
	.st94{fill:none;stroke:#1B2638;stroke-width:4.3371;stroke-linecap:round;stroke-linejoin:round;stroke-miterlimit:10;}
	.st95{fill:#B1F3FC;}
	.st96{fill:none;stroke:#98DAF4;stroke-width:4.3371;stroke-linecap:round;stroke-linejoin:round;stroke-miterlimit:10;}
	.st97{fill:none;stroke:#65ABE0;stroke-width:4.3371;stroke-miterlimit:10;}
	.st98{fill:none;stroke:#1B2638;stroke-width:4.8763;stroke-linecap:round;stroke-linejoin:round;stroke-miterlimit:10;}
	.st99{fill:none;stroke:#1B2638;stroke-width:1.0843;stroke-miterlimit:10;}
	.st100{fill:none;stroke:#FFFFFF;stroke-width:4.3371;stroke-linecap:round;stroke-linejoin:round;stroke-miterlimit:10;}
	.st101{fill:none;stroke:#FFFFFF;stroke-width:5.4643;stroke-linecap:round;stroke-linejoin:round;stroke-miterlimit:10;}
	.st102{fill:none;stroke:#1B2638;stroke-width:4.3714;stroke-linecap:round;stroke-linejoin:round;stroke-miterlimit:10;}
	.st103{fill:none;stroke:#98DAF4;stroke-width:4.3714;stroke-linecap:round;stroke-linejoin:round;stroke-miterlimit:10;}
	.st104{fill:none;stroke:#FFFFFF;stroke-width:4.3714;stroke-linecap:round;stroke-linejoin:round;stroke-miterlimit:10;}
	.st105{fill:none;stroke:#FFF27D;stroke-width:4.3714;stroke-linecap:round;stroke-linejoin:round;stroke-miterlimit:10;}
	.st106{fill:none;stroke:#65ABE0;stroke-width:4.3714;stroke-miterlimit:10;}
	.st107{fill:none;stroke:#000000;stroke-width:1.0929;stroke-miterlimit:10;}
	.st108{fill:none;stroke:#1B2638;stroke-width:22.9499;stroke-linecap:round;stroke-linejoin:round;stroke-miterlimit:10;}
	.st109{fill:none;stroke:#1B2638;stroke-width:12.0214;stroke-miterlimit:10;}
	.st110{fill:none;stroke:#1B2638;stroke-width:17.4857;stroke-linecap:round;stroke-linejoin:round;stroke-miterlimit:10;}
	.st111{fill:none;stroke:#1B2638;stroke-width:4.9148;stroke-linecap:round;stroke-linejoin:round;stroke-miterlimit:10;}
	.st112{fill:none;stroke:#FFFFFF;stroke-width:4.9148;stroke-linecap:round;stroke-linejoin:round;stroke-miterlimit:10;}
	.st113{fill:#CE6E84;}
	.st114{fill:none;stroke:#1B2638;stroke-width:4.5447;stroke-linecap:round;stroke-linejoin:round;stroke-miterlimit:10;}
	.st115{fill:none;stroke:#FFF27D;stroke-width:4.5447;stroke-linecap:round;stroke-linejoin:round;stroke-miterlimit:10;}
	.st116{fill:none;stroke:#B6FCFF;stroke-width:5.6809;stroke-linecap:round;stroke-linejoin:round;stroke-miterlimit:10;}
	.st117{fill:none;stroke:#1B2638;stroke-width:5.1097;stroke-linecap:round;stroke-linejoin:round;stroke-miterlimit:10;}
	.st118{fill:none;stroke:#1B2638;stroke-width:15.9065;stroke-linecap:round;stroke-linejoin:round;stroke-miterlimit:10;}
	.st119{fill:none;stroke:#FFFFFF;stroke-width:4.5447;stroke-linecap:round;stroke-linejoin:round;stroke-miterlimit:10;}
	.st120{fill:none;stroke:#1B2638;stroke-width:5.6809;stroke-linecap:round;stroke-linejoin:round;stroke-miterlimit:10;}
	.st121{fill:none;stroke:#98DAF4;stroke-width:4.5447;stroke-miterlimit:10;}
	.st122{fill:none;stroke:#65ABE0;stroke-width:4.5447;stroke-miterlimit:10;}
	.st123{fill:#F4D862;stroke:#1B2638;stroke-width:4.5447;stroke-linecap:round;stroke-linejoin:round;stroke-miterlimit:10;}
	.st124{fill:#F4D862;stroke:#1B2638;stroke-width:5.1097;stroke-linecap:round;stroke-linejoin:round;stroke-miterlimit:10;}
	.st125{fill:#FFFFFF;stroke:#1B2638;stroke-width:5.1097;stroke-linecap:round;stroke-linejoin:round;stroke-miterlimit:10;}
	.st126{fill:none;stroke:#65ABE0;stroke-width:4.5832;stroke-linecap:round;stroke-linejoin:round;stroke-miterlimit:10;}
	.st127{fill:none;stroke:#1B2638;stroke-width:4.5832;stroke-linecap:round;stroke-linejoin:round;stroke-miterlimit:10;}
	.st128{fill:none;stroke:#65ABE0;stroke-width:4.5832;stroke-miterlimit:10;}
	.st129{fill:none;stroke:#1B2638;stroke-width:5.7289;stroke-linecap:round;stroke-linejoin:round;stroke-miterlimit:10;}
	.st130{fill:none;stroke:#FFFFFF;stroke-width:4.5832;stroke-linecap:round;stroke-linejoin:round;stroke-miterlimit:10;}
	.st131{fill:none;stroke:#1B2638;stroke-width:6.8747;stroke-linecap:round;stroke-linejoin:round;stroke-miterlimit:10;}
	.st132{fill:none;stroke:#1B2638;stroke-width:5;stroke-linecap:round;stroke-linejoin:round;stroke-miterlimit:10;}
	.st133{fill:none;stroke:#EAB853;stroke-width:4;stroke-linecap:round;stroke-linejoin:round;stroke-miterlimit:10;}
	.st134{fill:none;stroke:#FFF985;stroke-width:4;stroke-linecap:round;stroke-linejoin:round;stroke-miterlimit:10;}
	.st135{fill:#E2869E;}
	.st136{fill:none;stroke:#98DAF4;stroke-width:4;stroke-linecap:round;stroke-linejoin:round;stroke-miterlimit:10;}
	.st137{fill:none;stroke:#000000;stroke-miterlimit:10;}
	.st138{fill:none;stroke:#1B2638;stroke-width:21;stroke-linecap:round;stroke-linejoin:round;stroke-miterlimit:10;}
	.st139{fill:none;stroke:#1B2638;stroke-width:11;stroke-miterlimit:10;}
	.st140{fill:none;stroke:#1B2638;stroke-width:16;stroke-linecap:round;stroke-linejoin:round;stroke-miterlimit:10;}
	.st141{fill:none;stroke:#1B2638;stroke-width:4.4972;stroke-linecap:round;stroke-linejoin:round;stroke-miterlimit:10;}
	.st142{fill:none;stroke:#FFFFFF;stroke-width:4.4972;stroke-linecap:round;stroke-linejoin:round;stroke-miterlimit:10;}
	.st143{fill:none;stroke:#65ABE0;stroke-width:4;stroke-linecap:round;stroke-linejoin:round;stroke-miterlimit:10;}
	.st144{fill:none;stroke:#1B2638;stroke-miterlimit:10;}
	.st145{fill:none;stroke:#FFFFFF;stroke-width:5;stroke-linecap:round;stroke-linejoin:round;stroke-miterlimit:10;}
	.st146{fill:none;stroke:#F299AC;stroke-width:7;stroke-linecap:round;stroke-linejoin:round;stroke-miterlimit:10;}
	.st147{fill:none;stroke:#1B2638;stroke-width:7;stroke-linecap:round;stroke-linejoin:round;stroke-miterlimit:10;}
	.st148{fill:none;stroke:#1B2638;stroke-width:15;stroke-linecap:round;stroke-linejoin:round;stroke-miterlimit:10;}
	.st149{fill:#65ABE0;stroke:#1B2638;stroke-width:4;stroke-linecap:round;stroke-linejoin:round;stroke-miterlimit:10;}
	.st150{fill:none;stroke:#B1F3FC;stroke-width:4;stroke-linecap:round;stroke-linejoin:round;stroke-miterlimit:10;}
	.st151{fill:none;stroke:#F299AC;stroke-width:3;stroke-linecap:round;stroke-linejoin:round;stroke-miterlimit:10;}
	.st152{fill:none;stroke:#1B2638;stroke-width:6;stroke-linecap:round;stroke-linejoin:round;stroke-miterlimit:10;}
	.st153{fill:none;stroke:#FFF27D;stroke-width:5;stroke-linecap:round;stroke-linejoin:round;stroke-miterlimit:10;}
	.st154{fill:none;stroke:#FFF27D;stroke-width:6;stroke-linecap:round;stroke-linejoin:round;stroke-miterlimit:10;}
	.st155{fill:none;stroke:#F299AC;stroke-width:4;stroke-linecap:round;stroke-linejoin:round;stroke-miterlimit:10;}
	.st156{fill:none;stroke:#98DAF4;stroke-width:7;stroke-linecap:round;stroke-linejoin:round;stroke-miterlimit:10;}
	.st157{fill:none;stroke:#1B2638;stroke-width:14;stroke-linecap:round;stroke-linejoin:round;stroke-miterlimit:10;}
	.st158{fill:none;stroke:#FFFFFF;stroke-width:4;stroke-linecap:round;stroke-linejoin:round;stroke-dasharray:11.9734,11.9734;}
	.st159{fill:#B0ECFF;stroke:#1B2638;stroke-width:4;stroke-linecap:round;stroke-linejoin:round;stroke-miterlimit:10;}
	.st160{fill:#B1F3FC;stroke:#1B2638;stroke-width:4;stroke-linecap:round;stroke-linejoin:round;stroke-miterlimit:10;}
	.st161{fill:none;stroke:#F4D862;stroke-width:4;stroke-linecap:round;stroke-linejoin:round;stroke-miterlimit:10;}
	.st162{fill:#FFF27D;stroke:#1B2638;stroke-width:4;stroke-linecap:round;stroke-linejoin:round;stroke-miterlimit:10;}
	.st163{fill:none;stroke:#FFFFFF;stroke-width:7;stroke-linecap:round;stroke-linejoin:round;stroke-miterlimit:10;}
	.st164{fill:none;stroke:#F4D862;stroke-width:7;stroke-linecap:round;stroke-linejoin:round;stroke-miterlimit:10;}
</style>
<g>
	<rect x="1419.1" y="533.6" class="st0" width="705" height="917.3"/>
	<polygon class="st1" points="1385.7,728.3 1328.2,809.7 1260.4,905.7 1230.3,948.3 1227.5,952.2 1206.5,981.9 1204.4,984.9 
		852.4,1483 743.4,1469.1 689.5,1462.2 686,1461.8 643.3,1456.3 635.3,1455.3 631.6,1454.8 607.5,1451.7 531.1,1442 357.4,1419.8 
		384.5,1296.4 385.3,1292.8 464.7,930.8 622.3,896.2 625.7,895.5 756.5,866.7 763.9,865 1193.9,770.5 1197.2,769.7 1239.7,760.4 
		1264.2,755 	"/>
	<path class="st11" d="M2127.7,1487.6h-693.1c-8.6,0-15.5-6.9-15.5-15.5v-39.8c0-8.6,6.9-15.5,15.5-15.5h693.1
		c8.6,0,15.5,6.9,15.5,15.5v39.8C2143.2,1480.7,2136.3,1487.6,2127.7,1487.6z"/>
	<g>
		<polygon class="st2" points="385.3,1292.8 643.3,1456.3 635.3,1455.3 384.5,1296.4 		"/>
		<polygon class="st2" points="625.7,895.4 689.5,1462.2 686,1461.8 622.3,896.2 		"/>
		<polygon class="st2" points="763.9,865 1206.5,981.9 1204.4,984.9 756.5,866.7 		"/>
		<polygon class="st2" points="1230.3,948.3 1227.5,952.2 1193.9,770.5 1197.2,769.7 		"/>
	</g>
	<path class="st5" d="M635.6,1404.7l-4.1,50.1l-24.1-3.1l-76.4-9.8c3.4-111.7,65.2-318,65.2-318L635.6,1404.7z"/>
	<polygon class="st1" points="512.8,1820.1 434.1,1837.4 507.4,1772.4 580.6,1707.3 557.6,1802.6 534.5,1897.8 	"/>
	<polygon class="st4" points="1112.7,857.6 1149.8,877.3 1098.8,878.4 1047.7,879.6 1089,849.5 1130.2,819.4 	"/>
	<circle class="st55" cx="490.1" cy="1124" r="29.5"/>
	<line class="st56" x1="881.5" y1="1650.8" x2="881.5" y2="2022.7"/>
	<circle class="st11" cx="881.5" cy="2049.5" r="26.8"/>
	<circle class="st11" cx="662.2" cy="2049.5" r="26.8"/>
	<line class="st56" x1="881.5" y1="1650.8" x2="662.2" y2="2049.5"/>
	<circle class="st11" cx="1100.7" cy="2049.5" r="26.8"/>
	<line class="st56" x1="881.5" y1="1650.8" x2="1100.7" y2="2049.5"/>
	<path class="st3" d="M1890,2071.5h-221.8v-99.4l46.3-35.4c0,0,58.5-4.1,95.3,2.7c36.7,6.8,58.5,44.9,58.5,44.9L1890,2071.5z"/>
	<path class="st4" d="M1890,1934c0,0-37.5,39.6-94.2,48.6c-8.1,1.3-16.7,2-25.5,1.8l-69.4-46.3c0,0,6.3-27.2,20.2-54
		c11.9-23,29.4-45.7,53.3-50.8l5.7,4.9l2.2,1.9L1890,1934z"/>
	<path class="st13" d="M1795.8,1982.6c-8.1,1.3-16.7,2-25.5,1.8l-69.4-46.3c0,0,6.3-27.2,20.2-54c26.5-26.6,50.5-41.2,59-45.8
		c2.1-1.1,20.7,18,20.7,18S1757.6,1941,1795.8,1982.6z"/>
	<path class="st57" d="M1774.3,1833.3L1890,1934c0,0-49,51.7-119.8,50.4l-69.4-46.3C1700.8,1938.1,1722.6,1844.2,1774.3,1833.3z"/>
	<path class="st14" d="M589.3,1290.2l-12.6-236.8c0,0,116.7-116.1,271.2-72.2l184.7,394.5l388.2,266.3l-7.5,27.6l-294.5,18.8
		L755,1624.4c0,0-18.8,11.3-65.3-79.1c-46.5-90.5-89.8-140.7-89.8-140.7s-4.7-61.1-5.3-65.3C594,1335,586,1300.8,589.3,1290.2z"/>
	<polygon class="st56" points="1011.2,598.3 1068.3,580.7 1018.2,633.2 968.1,685.6 979.3,614 990.5,542.3 	"/>
	<polygon class="st56" points="1984.4,1734.3 1971.6,1792.6 1950.6,1723.2 1929.6,1653.8 1986.4,1698.8 2043.3,1743.8 	"/>
	<polygon class="st4" points="1317,1298.4 1303.4,1400.9 1180.7,1333.1 1140.1,1310.7 1147.3,1245.4 1151,1212.7 1179.7,1223.9 
		1184.2,1225.6 1228.5,1249.9 	"/>
	<path class="st4" d="M1544.1,1337.8c0,0-19.3-25.8-21.8-38.7c-2.5-12.9-17.5-18.3-22.9-4.7c-5.4,13.6-6.8,34-6.8,34
		s5.4,19.1,19.1,20.4S1544.1,1337.8,1544.1,1337.8z"/>
	<path class="st13" d="M1228.5,1249.9c0,0-28.9,16.2-30.6,41.6c-1,14.9-8.3,30.2-17.2,41.6l-40.6-22.4l7.3-65.3
		c7.6-7.1,17.1-14.1,28.8-19.7c1.2-0.6,2.4-1.2,3.6-1.8l4.5,1.8L1228.5,1249.9z"/>
	<path class="st10" d="M1760.6,1688c-4.4-87.6-10-194.9-13.5-232.3c-0.5-5.4-1-9.3-1.3-11.6c-5.9-33.3-11.1-49.7-40.5-56.3
		c-11.4-2.5-26.4-3.6-46.6-3.6c-81.7,0-356.6,19.1-356.6,19.1l50.4,145.6l175.6,44.9c0,0,57.1-19.3,77.4-32.4
		c0.4,10.7,3.1,38.3,5.1,64.1c0.9,11.5,2,22.1,3.2,29.6c0.9,5.5-8.8,88.5-14.7,137.4c-2.5,20.8-4.3,35.4-4.3,35.4l42,5.3l129.5,16.4
		l0.5-34.7C1766.7,1814.9,1764,1757.6,1760.6,1688z M1606.9,1555.7c0-1.6,0-1.3,0.1,0.4C1607,1556,1606.9,1555.8,1606.9,1555.7z"/>
	<path class="st12" d="M1766.7,1814.9l-0.5,34.7l-129.5-16.4c-15.4-10.6-29.1-24-37.7-40.8c-3.5-6.9-6.2-14.3-7.7-22.4
		c-15.1-79,0-153.1,0-153.1s7.1,3.2,19.2,8.5c30.6,13.4,92.8,40.3,150.1,62.6C1764,1757.6,1766.7,1814.9,1766.7,1814.9z"/>
	<path class="st11" d="M916.9,880.6c4.8-14.4,14.9-3.9,23.1,1.4c19.1,12.2,24.5-13.6,16.3-32.7c-8.2-19.1-24.5-31.3-24.5-31.3
		s-16.3-13.6-40.8-8.2c-24.5,5.4-36.7,15-36.7,15c-44.9-13.6-98,9.5-96.6,74.9c0.1,6.1,3.8,13,7.7,17.9c3.3,4.2,3.6,10,0.8,14.6
		c-14.5,23.7-16.6,37.9-15.3,46.5c1.4,9.5,10.9,23.1,31.3,25.9c19.3,2.6,36.6-10.9,38.1-13.6c0.1-0.2,15-25.9,20.4-42.2
		c1.2-3.6,2.3-7.9,3.1-11.8c0.8-3.6,5.2-5.3,8-2.9c1.7,1.4,3.9,2.4,6.6,2.4C866,936.4,904.6,917.4,916.9,880.6z"/>
	<path class="st1" d="M1049.3,1117.9c2.2-2.1,5.3-3.1,8.3-2.7c26.6,3.8,53.7,19.6,66.1,26.8c2.2,1.2,24.2,17.2,25.9,19.1
		c9.1,10.3,42.2,32.7,65.3,59.9c30.4,35.7-34.8,6-44.9,50.4c-6.8,29.9-21.8,39.5-21.8,39.5s-35.4-34-55.8-66.7
		c-20.4-32.7-51.7-29.9-61.2-68C1023.7,1146.1,1041.4,1125.4,1049.3,1117.9z"/>
	<polyline class="st58" points="1109.9,1223.6 1116.5,1140.8 1178.3,1220.3 1121.1,1258.3 1184.2,1250.4 	"/>
	<path class="st56" d="M1049.3,1117.9c2.2-2.1,5.3-3.1,8.3-2.7c26.6,3.8,53.7,19.6,66.1,26.8c2.2,1.2,24.2,17.2,25.9,19.1
		c9.1,10.3,42.2,32.7,65.3,59.9c30.4,35.7-34.8,6-44.9,50.4c-6.8,29.9-21.8,39.5-21.8,39.5s-35.4-34-55.8-66.7
		c-20.4-32.7-51.7-29.9-61.2-68C1023.7,1146.1,1041.4,1125.4,1049.3,1117.9z"/>
	<path class="st4" d="M929.1,1127c0,43.6-25.9,42.2-50.4,39.5c-24.5-2.7-70.8-36.7-69.4-38.1s15-77.6,16.3-98l1.4-2.7
		c0,0,49.3,11.2,79,34.1c11.7,9,20.3,19.9,21.7,32.6c1,8.8,1.3,13.3,1.3,21.2C929.1,1118.6,929.1,1122.3,929.1,1127z"/>
	<path class="st56" d="M915.1,1069.8c-27.2-28.4-88-42.2-88-42.2"/>
	<polyline class="st59" points="1675.6,1973.5 1726.9,2016.5 1797.8,1994.7 	"/>
	<path class="st13" d="M929.1,1115.5c-51.8-0.4-64.8-41.6-64.8-41.6s19.8-8,41.8-12.2c11.7,9,20.3,19.9,21.7,32.6
		C928.7,1103,929,1107.6,929.1,1115.5z"/>
	<path class="st4" d="M817.7,985.1c12.7,17.5,17.1,36,9.8,41.3c-1.2,0.9-2.7,1.3-4.3,1.4c-8.3,0.4-21.3-8.9-31.9-23.5
		c-12.7-17.5-17.1-36-9.8-41.3C788.8,957.8,805,967.7,817.7,985.1z"/>
	<path class="st4" d="M927,1090.1c-31.9,1.4-60.5-10.8-68.7-16.3c-8.2-5.4-49-66.7-49-66.7l-0.7-7.9l-4.8-57.4l32.7-59.9l53.1-43.6
		c0,0,35.4-8.2,39.5-1.4c3.2,5.3,11.2,17.9,14.7,23.3c1,1.6,1.6,2.6,1.6,2.6s0.8,9.4,2,22.1c0.6,6.6,1.3,14.2,2.1,21.8
		c2,19.8,4.2,40.1,5.4,45.9c2.7,12.2,12.2,28.6,13.6,50.4C970,1024.9,959,1088.7,927,1090.1z"/>
	
		<ellipse transform="matrix(0.1756 -0.9845 0.9845 0.1756 -247.5319 1686.1311)" class="st1" cx="883" cy="990.9" rx="6.8" ry="10.9"/>
	<path class="st56" d="M902.6,1022.8c11.1,13.8,29.7,5.8,29.7,5.8"/>
	<path class="st10" d="M1632.8,2030.7c-31.3-70.8-145.6-300.8-235.5-392c-64.9,0-132.9,4.9-182.5,9.5c0,0,0,0,0,0
		c-44,4.1-73.4,8-73.4,8l-112-94.2v-32l150.2-77.8c0,0,292.9-17.7,313,0s205.5,323.9,291.3,374.3
		C1792.3,1831.5,1721.8,2001,1632.8,2030.7z"/>
	<circle class="st11" cx="806.1" cy="752.6" r="19.7"/>
	<circle class="st11" cx="830.6" cy="787" r="9.8"/>
	<circle class="st60" cx="586.2" cy="764.9" r="38.1"/>
	<path class="st12" d="M1214.8,1648.2c-44,4.1-73.4,8-73.4,8l-112-94.2v-17.1l2.2-6.1l135.9-43.8
		C1167.5,1495,1093.1,1621.9,1214.8,1648.2z"/>
	<path class="st56" d="M827,1027.6l-1.4,2.7c-0.9,14.1-7.7,54.7-12.3,79"/>
	<circle class="st60" cx="1227.2" cy="1090.2" r="31.3"/>
	<path class="st1" d="M1302,1427.9c-8.4,4.2-125.9,79.5-186.6,105c-17.9,7.5-33.6,14.5-44.8,20.1c-49,24.5-164-2.1-205.5-51.7
		c-49-58.5-52.1-43.2-61.2-65.3c-16.3-39.4-0.7-78.1-1.4-77.6c-0.2,0.2-5-7.9-12.3-21c-26.8-48.1-87.2-163.3-77.5-180.5
		c9.1-16.2,37.5-23.2,61.1-26.3c17.2-2.2,31.9-2.3,34.9-2.3c0.4,0,0.6,0,0.6,0s89-5.5,160.1-9.5c2.2-0.1,4.3-0.2,6.4-0.4
		c32.4-1.8,60.3-3.3,73-3.7l57.2,98c0,0,15.3,64,34,91c20,29,63.2,42.9,83,57.4c29.9,21.8,74.2,46.7,74.2,46.7
		S1312.9,1422.4,1302,1427.9z"/>
	<path class="st1" d="M1048.9,1114.7c37.6-1.3,57.2,98,57.2,98"/>
	<path class="st5" d="M1115.5,1532.9c-17.9,7.5-33.6,14.5-44.8,20.1c-49,24.5-164-2.1-205.5-51.7c-49-58.5-52.1-43.2-61.2-65.3
		c-16.3-39.4-0.7-78.1-1.4-77.6c-0.2,0.2-5-7.9-12.3-21c5.7-6.7,9.3-10.7,9.3-10.7s17.6,59.3,103.1,60.2c85.5,0.9,90.6-21,119-5.4
		C1047.4,1395.5,1029.7,1505,1115.5,1532.9z"/>
	<path class="st61" d="M1813.7,1271c1.8-44.3,3.7-68.3,12.9-51.7c9.2,16.6,14.8,51.7,16.6,35s1.8-131,20.3-118.1
		c18.4,12.9,55.3,75.6,51.7,178.9c-3.7,103.3,24-88.5,31.4-73.8c7.4,14.8,0,48,20.3,48c20.3,0,18.4-48,40.6-35
		c22.1,12.9,16.6,66.4,36.9,35"/>
	<path class="st56" d="M989.3,1117.7c26.6-1.5,48.7-2.6,59.6-3c0,0,10.2-0.1,21.7,3.2"/>
	<path class="st10" d="M932.3,1195.7c-50.4-1.4-132.1-49-158.4-65.1c17.2-2.2,31.9-2.3,34.9-2.3c0.4,0,0.6,0,0.6,0s89-5.5,160.1-9.5
		c2.2-0.1,4.3-0.2,6.4-0.4c0,0,15.8,21.9,26.1,40.7C1012.2,1177.9,993,1197.4,932.3,1195.7z"/>
	<path class="st56" d="M1106.1,1212.7c0,0,10.4,46.4,27.9,81.4c15.7,31.5,69.3,52.5,89.1,66.9c29.9,21.8,54.4,84.4,54.4,84.4
		s31.5-16.3,20.6-10.9c-10.9,5.4-178.4,93.9-227.4,118.4c-49,24.5-164-2.1-205.5-51.7c-49-58.5-52.1-43.2-61.2-65.3
		c-16.3-39.4-31.3-87.5-32-87c-1.1,0.7-71.4-170.2-59.2-192c11.6-20.6,54.3-26.4,78.9-28"/>
	<path class="st11" d="M1273.2,1180h266.5c6.6,0,11.6,6,10.4,12.5l-45.3,243.3l-277.6,16.3l35.5-263
		C1263.4,1184,1267.9,1180,1273.2,1180z"/>
	<line class="st56" x1="1009.4" y1="1689" x2="1009.4" y2="1755.7"/>
	<circle class="st11" cx="1008.7" cy="1770" r="15.7"/>
	<g>
		<path class="st4" d="M1042.5,1418.6l70.3-16.2l61.3,12.6c0,0,3.6,14.4-12.6,14.4s-37.9-5.4-37.9-5.4l-46.9,14.4l-77.5,5.4
			C999.2,1443.9,1031.7,1420.4,1042.5,1418.6z"/>
		<path class="st4" d="M1018.2,1412.3l1.5-0.4l124.8-33.9l84.8,23.4c0,0,1.8,16.2-14.4,14.4s-77.5-12.6-77.5-12.6l-41.5,12.6
			c0,0-67.9,14.2-71.8,11.6"/>
		<path class="st4" d="M1018.2,1401.5c0,0,70.3-23.4,81.2-23.4s115.4,34.3,115.4,34.3s1.8,7.2-10.8,7.2s-54.1-5.4-59.5-5.4
			s-86.5,1-86.5,1L1018.2,1401.5z"/>
		<path class="st4" d="M1157.3,1406.8l17.8,34.4c0,0-21.6,9-32.5-18C1131.8,1396.1,1157.3,1406.8,1157.3,1406.8z"/>
		<path class="st4" d="M1003.9,1467.9c0,0,95.5-17.7,97.3-24.9s3.6-14.4,7.2-19.8s-41.9-37-41.9-37s-70.1,17.9-98.9,19.7
			C932.7,1408.2,960.6,1464.3,1003.9,1467.9z"/>
		<polyline class="st56" points="1095,1406.5 1112.8,1402.4 1165.2,1413.2 		"/>
	</g>
	<path class="st4" d="M1554.7,1337l-88,6.4c0,0-10.9,12.2,6.8,15c17.7,2.7,55.8,5.4,55.8,5.4l24.5-5.4c0,0,12.7-1.1,9.1-15.4
		C1562,1339.2,1558.5,1336.7,1554.7,1337z"/>
	<path class="st4" d="M1557.9,1406l-84.4,6.8c0,0-10.9,12.2,6.8,15s46.3,5.4,46.3,5.4l24.5-5.4
		C1551.1,1427.7,1567.4,1426.4,1557.9,1406z"/>
	<path class="st4" d="M1556.3,1359.7l-101.6,6.8c0,0-11.8,12.2,7.4,15c19.2,2.7,60.4,5.4,60.4,5.4l26.5-5.4
		C1548.9,1381.5,1566.6,1380.1,1556.3,1359.7z"/>
	<path class="st4" d="M1556.3,1384.2l-101.6,6.8c0,0-11.8,12.2,7.4,15s60.4,5.4,60.4,5.4l26.5-5.4
		C1548.9,1406,1566.6,1404.6,1556.3,1384.2z"/>
	<path class="st4" d="M1562.8,1343c4.1,14.6,14,57.3-3.1,79.6c-0.9,1.2-2.3,1.9-3.8,1.9l-32.6,0.5c-1.5,0-2.9-0.6-3.9-1.8
		c-1.8-2.3-4.7-7.1-6.4-15.8c-2.7-13.6-2.5-19.6-0.6-30.9c1.9-11.3-0.8-12.6,7.4-19.4c6.2-5.2,27-13.5,36.6-17.2
		C1559,1338.7,1562,1340.2,1562.8,1343z"/>
	<path class="st13" d="M949.6,906.8c-11.9-8.2-23.4,0.3-40.6,15c-21.2,18.2-48.6,10.1-48.6,10.1s9.2-36.3,17.3-53.6
		c8.1-17.3,18.4-15.1,39.8-22.9c8.2-3,17.8,0.1,26.4,5c1,1.6,1.6,2.6,1.6,2.6s0.8,9.4,2,22.1C948.1,891.7,948.8,899.2,949.6,906.8z"
		/>
	
		<ellipse transform="matrix(0.7626 -0.6469 0.6469 0.7626 -650.9464 1304.0939)" class="st4" cx="1451.1" cy="1538.8" rx="62.6" ry="28"/>
	<path class="st11" d="M1766.7,2022.7c0,0-4.6,18.9,4.9,27.1c0,0,73.5,29.9,99.4,28.6s172.8-50.4,172.8-50.4s5.4-38.1-42.2-32.7
		l-108.9,12.2c0,0-51.7-1.4-70.8,0C1802.9,2008.9,1766.7,2022.7,1766.7,2022.7z"/>
	<path class="st4" d="M1747.1,1455.6c-20.4,12.6-44.4,11.8-56.9-2.9c-14.2-16.8-8.1-45.3,13.7-63.8c0.5-0.4,0.9-0.8,1.4-1.2
		c29.4,6.6,34.6,22.9,40.5,56.3C1746.1,1446.3,1746.6,1450.2,1747.1,1455.6z"/>
	<path class="st3" d="M2001.6,1995.3c-3.1,0-8.4,1.4-15.1,3.7c-2.6,0.9-5.3,1.9-8.3,3c-30.2,11.4-77.1,33.5-88.2,35.5
		c-9.5,1.7-56.6-3.6-89.9-7.8c-2.6-0.3-5.1-0.6-7.5-1c-15.5-2-26.5-3.5-26.5-3.5l0.5-43.2l49.8-15.7c16-5.1,30.5-14,42.3-26
		l19.8-20.2c0,0,48.2,20.8,63.2,35.8C1956.7,1970.8,2001.6,1995.3,2001.6,1995.3z"/>
	<path class="st11" d="M1856,2073.2c0,0-0.4,2-1.7,5.1h-186.1v-34.1h183.7L1856,2073.2z"/>
	<g>
		<path class="st8" d="M1986.4,1999c-2.6,0.9-5.3,1.9-8.3,3l-62.4-37.6l-22.6,53.5c-0.4,0.9-1.1,1.6-2,1.9c-0.9,0.3-1.9,0.2-2.8-0.3
			c-20.7-11.6-51.3-28.6-59.4-32.9c-4.3,5.5-17.1,24.8-28.9,43.1c-2.6-0.3-5.1-0.6-7.5-1c0.8-1.3,8.2-12.8,15.8-24.2
			c17.4-26.2,17.9-26.1,20.7-25.4c0.6,0.1,2.1,0.5,59.2,32.5l22.6-53.6c0.4-0.9,1.1-1.6,2.1-1.9c0.9-0.3,2-0.2,2.8,0.3L1986.4,1999z
			"/>
	</g>
	<path class="st0" d="M926.9,944.6c0,0,0.1,35.9,5.8,52.8c1.1,3.2,4.3,5.2,7.7,4.8c5.9-0.7,16-3.4,14.9-12.9
		C953.6,975.5,926.9,944.6,926.9,944.6z"/>
	<path class="st56" d="M927,1090.1c-31.9,1.4-60.5-10.8-68.7-16.3"/>
	<path class="st11" d="M947.5,885c-2.2-0.3-4.7-1.3-7.5-3.1c-8.3-5.3-18.3-15.8-23.1-1.4c-12.2,36.7-50.9,55.8-58.5,55.8
		c-2.7,0-4.9-1-6.6-2.4c-2.8-2.4-7.2-0.7-8,2.9c-0.8,3.9-1.9,8.2-3.1,11.8c-5.4,16.3-8.8,33.2-8.8,33.3c-0.7,1.3-20.4,4.1-31.3-15
		l-5.4-34l29.9-65.3l66.7-44.9c0,0,49,5.4,53.1,12.2c4.1,6.8,10.9,28.6,10.9,28.6S955.7,873.1,947.5,885z"/>
	<path class="st56" d="M827.6,1026.4c-1.2,0.9-2.7,1.3-4.3,1.4c-8.3,0.4-21.3-8.9-31.9-23.5c-12.7-17.5-17.1-36-9.8-41.3
		c4.3-3.1,11.8-1,19.8,5"/>
	<path class="st4" d="M1016.7,1465.8c0,0-223.7,69.4-238.7,72.1s-70.8-1.4-76.2-9.5c-3.5-5.3-10.5-94.9-14.9-157.5
		c-2.4-34.1-4.1-60.3-4.1-60.3c25.9-42.2,130,11.4,130,11.4l-7.6,58l-5.6,42.7l194.9-19.5L1016.7,1465.8z"/>
	<path class="st13" d="M812.7,1322.1l-7.6,58c-8.9-2.9-23.5,0-35,3.9c-28.4,9.5-32.3,19.8-62.6,0c-10.9-7.1-15.1-13.3-20.7-12.9
		c-2.4-34.1-4.1-60.3-4.1-60.3C708.6,1268.5,812.7,1322.1,812.7,1322.1z"/>
	<path class="st1" d="M662.4,1346.1c6.8-58.5,31.3-142.9,32.7-162c1.4-19.1,42.2-57.2,78.9-38.1s64,50.4,62.6,85.7
		c-1.4,35.4-12.2,122.5-27.2,126.6c-9.6,2.6,0.5-21.1-46.3-6.8c-12.3,3.8-25,34.7-61.9-8.4C680.7,1319.2,662.4,1346.1,662.4,1346.1z
		"/>
	<polyline class="st58" points="668.1,1306.8 831.1,1287.9 688.7,1208.4 795.1,1159.1 	"/>
	<path class="st56" d="M809.4,1358.3c9,12.6,25.9-91.2,27.2-126.6c1.4-35.4-25.5-71.9-62.2-90.9c-36.7-19.1-70.9,15.5-79.3,43.3
		c-5.5,18.3-25.9,103.4-32.7,162c0,0,14.3-19.1,38.9-2.9c24.6,16.2,24.6,32.1,50.3,15.2S800.2,1345.6,809.4,1358.3z"/>
	<line class="st56" x1="799.6" y1="1422.7" x2="921.2" y2="1410.6"/>
	<path class="st4" d="M809.4,1128.3c0,0,62.9,51.6,139.9,43.8c46.3-4.7-2.1-52.1-2.1-52.1l-66.8-6.8L809.4,1128.3z"/>
	<path class="st56" d="M864.3,1159.1c0,0,45.4,22.3,76.9,13.8"/>
	<path class="st11" d="M1501,1434.5h-381.6c-4.4,0-7.9,3.5-7.9,7.9v1.9c0,4.4,3.5,7.9,7.9,7.9H1501c4.4,0,7.9-3.5,7.9-7.9v-1.9
		C1508.9,1438.1,1505.4,1434.5,1501,1434.5z"/>
	<path class="st56" d="M1492.6,1452.2c13.4,11.8,100.6,152.3,182.6,259.4"/>
	<path class="st4" d="M1463.7,1318.4h-136.8c-5.7,0-10.3-4.6-10.3-10.3v-2.4c0-5.7,4.6-10.3,10.3-10.3h136.8
		c5.7,0,10.3,4.6,10.3,10.3v2.4C1474,1313.7,1469.4,1318.4,1463.7,1318.4z"/>
	<path class="st56" d="M1095,1310.7c0,0-90.8,36.6-143.2,39.5"/>
	<path class="st0" d="M587.9,1242.9c0,0-13.4,211.1,144.9,250.4s279.7,5,342.6,63.7s92.1,124,92.1,124s-225.3,52.8-545.7-56.5
		C621.8,1624.4,571.5,1333.8,587.9,1242.9z"/>
	<path class="st56" d="M583.8,1186.8l-7.1-133.5c0,0,53.1-52.8,135-73.7"/>
	<path class="st56" d="M649.1,1444.1c20.4,22.3,47.6,40.2,83.7,49.2c98.7,24.5,183.1,20.4,247.9,28.1"/>
	<path class="st56" d="M1590.7,1943l42.1,87.7c0,0,39.7-9.7,54.4-35.6"/>
	<line class="st56" x1="1594.1" y1="2078.3" x2="2228.1" y2="2078.3"/>
	<line class="st56" x1="603" y1="2078.3" x2="1452.1" y2="2078.3"/>
	<line class="st56" x1="251.2" y1="2078.3" x2="393.6" y2="2078.3"/>
	<line class="st56" x1="456.4" y1="2078.3" x2="533.4" y2="2078.3"/>
	<line class="st56" x1="1494.5" y1="2078.3" x2="1550" y2="2078.3"/>
	<line class="st56" x1="1184.2" y1="1651.2" x2="1361.7" y2="1639.1"/>
	<g>
		<circle class="st2" cx="1594.1" cy="1723.2" r="12.8"/>
		<path class="st63" d="M1443.4,1802.6c2.2-0.2,35.3,0,45.1-17.9c10-18.4,2.3-24.4,2.3-24.4"/>
		<g>
			<path class="st2" d="M1392.2,1931.3c0,0-82.4-100.5-22.1-140.6c60.3-40.2,47.2-61.3,60.3-113.5c13.1-52.2,111.5-120.6,131.6-42.2
				c20.1,78.4-30.1,76.4-5,111.5c25.1,35.2-38.2,92.4-52.2,116.5S1498.7,1943.4,1392.2,1931.3z"/>
			<path class="st61" d="M1421.5,1875.8c0,0-19.6-22.9-10.5-47.3"/>
			<path class="st56" d="M1370.1,1996.3c5.5-2.5,50.1-48.5,78.7-28.4s11.6,69.2-30.4,52.2
				C1376.5,2003.2,1370.1,1996.3,1370.1,1996.3z"/>
			<path class="st56" d="M1364.4,2018.5c0,0-32.1-68.9-78.1-59.5c-46,9.4-31.7,62.5,13.4,53.1
				C1344.8,2002.8,1364.4,2018.5,1364.4,2018.5z"/>
			<path class="st61" d="M1452.1,1802c0,0,29.7,2,36.4-31.5"/>
			<path class="st56" d="M1359.1,2077c-5.2-67.6,40.2-160.5,64.1-204.3c15.3-27.9,26.7-57.8,33.4-88.9c2.9-13.3,5.1-27.6,6-41.4
				c3-50.2,37.7-78.4,49.5-74.3"/>
		</g>
		<path class="st2" d="M1212.4,1762.8c-13-2.5-60.6-1.9-79,135.7c0,0,49.6,26.9,64.3-13.7c14.7-40.6,18.1-50.1,18.1-50.1
			s-2.7,45,25.4,23.6c28.1-21.4,38-67.3,38-67.3s-20.5-24-57.7-27C1218.5,1763.8,1215.4,1763.4,1212.4,1762.8z"/>
		<path class="st61" d="M1236.7,1787.5c0,0-60.3,2.2-71,52.7"/>
		<path class="st56" d="M1367.5,2005.9c-3-2.3-26.5-54.5-38.5-102.1s-35.5-158.1-138-137.6"/>
	</g>
	<g>
		<path class="st0" d="M1005.3,1971.9c0,0,26.6-17,5.2-54.5c-21.3-37.5-40.8-64.5,3.8-55.5c44.6,9,65.4,100.5,27,114.3
			C1002.9,1990,1005.3,1971.9,1005.3,1971.9z"/>
		<circle class="st0" cx="1087.1" cy="1993" r="13.6"/>
		<path class="st0" d="M954.7,1863c0,0,35.4,119.1-25.1,141.9c-60.5,22.8-138-56.2-150.1-101.7c-12.1-45.5,14.4-42.8,29.6-24.3
			c15.2,18.6,76.8,50.9,76.8,50.9l22.5,3.4l13.8-16.2l6.1-30.9C928.3,1886.2,941.4,1825,954.7,1863z"/>
		<path class="st56" d="M793.3,1887.2c0,0,26.3,55.5,86.5,68.3"/>
		<path class="st56" d="M1014.3,2078.2c0,0-1-135.8-33.4-180.7c-33.2-46-35.6-60.5-46.9-33.4s-3.6,97.5-59.8,59.8
			s-75.4-52.6-75.4-52.6"/>
	</g>
	<path class="st1" d="M1968,456.3h-402.8v-11.9c0-26.8,21.7-48.6,48.6-48.6h305.6c26.8,0,48.6,21.7,48.6,48.6V456.3z"/>
	<line class="st56" x1="1990.9" y1="466.7" x2="2088.7" y2="511.3"/>
	<path class="st18" d="M1877,533.6c-5.9,9.7-15.5,21.4-30.4,30.1c-30.1,17.6-212.7,79.2-212.7,79.2l48-109.3H1877z"/>
	<line class="st56" x1="1542.4" y1="466.7" x2="1444.6" y2="511.3"/>
	<g>
		<g>
			<path class="st4" d="M1470.2,1153c-3.9,0-7.9-1.3-11.1-4c-7.6-6.2-8.7-17.3-2.6-24.9l106-130.5c5.7-7,15.7-8.6,23.2-3.8l130,82.8
				l128.2-227.1c4.6-8.1,14.7-11.3,23.1-7.2l92.8,44.8l76.8-159.7c4.2-8.8,14.8-12.5,23.6-8.3c8.8,4.2,12.5,14.8,8.3,23.6
				L1984,914.3c-2,4.2-5.7,7.5-10.1,9c-4.4,1.6-9.3,1.3-13.5-0.8l-93.8-45.3l-129.2,228.9c-2.4,4.2-6.4,7.3-11.1,8.5
				c-4.7,1.2-9.7,0.4-13.8-2.2l-132.4-84.3l-96,118.3C1480.4,1150.8,1475.3,1153,1470.2,1153z"/>
		</g>
		<g>
			<g>
				<path class="st4" d="M2104.4,760.6l-7.6-100.5c-0.6-8.1-9.8-12.6-16.6-8L1997,709c-6.7,4.6-6,14.8,1.4,18.3l90.9,43.7
					C2096.6,774.5,2105,768.8,2104.4,760.6z"/>
			</g>
		</g>
	</g>
	<path class="st18" d="M2124.1,1054.5v144.4l-53.4-149.5C2070.7,1049.4,2096.3,1050.7,2124.1,1054.5z"/>
	<line class="st56" x1="2089.6" y1="975.7" x2="2127.4" y2="1027.9"/>
	
		<rect x="2111.2" y="997.3" transform="matrix(0.8027 -0.5963 0.5963 0.8027 -218.7676 1507.7772)" class="st3" width="116.9" height="174.5"/>
	<path class="st56" d="M2115.5,1084.6c0,0,10.3-66.5,32.8-38.4c22.5,28-17.7,117.7,22.9,81.2c40.6-36.5,31.2-63.2,14.8-57.6"/>
	<circle class="st4" cx="2054.4" cy="1452.2" r="16.3"/>
	<circle class="st4" cx="1978.2" cy="1452.2" r="16.3"/>
	<g>
		<path class="st3" d="M1526.8,878c-53.8,128.6-200.2,85.9-200.2,85.9s40.3-83.2,83.6-117c43.3-33.9,76.3-20.1,76.3-20.1l2,2.5
			l34.9,44.4L1526.8,878z"/>
		<polygon class="st1" points="1550.3,861.9 1545,866.3 1534.9,874.6 1533.9,875.5 1487.8,819.6 1496,812.8 1504.2,806 		"/>
		<polygon class="st12" points="1545,866.3 1534.9,874.6 1496,812.8 		"/>
		<path class="st1" d="M1542.5,869.2l-46.9-56.9c-5.9-7.2-4.9-17.8,2.3-23.7l3.4-2.8l68.3,82.8l-3.4,2.8
			C1559,877.4,1548.4,876.4,1542.5,869.2z"/>
		<path class="st10" d="M1605.8,653.3c0,0-5.5,16.5-14.7,36.5c-16.1,35.1-43.6,80.6-71.9,64.2c-13.4-7.8-29.7-9.6-45.9-8.3
			c-37.3,2.9-74.1,22.2-74.1,22.2l71.4-93.5c17.8-23.3,47-35,76-30.4L1605.8,653.3z"/>
		<path class="st10" d="M1719.6,791.3l-2,59.8c-1,29.4-18,55.8-44.3,68.9l-105.4,52.4c0,0,23.7-29.6,34.5-63.7
			c5.4-17.1,7.6-35.3,2-51.5c-2.5-7.1-1.7-13.5,1.3-19.3C1623.3,803.9,1719.6,791.3,1719.6,791.3z"/>
		<path class="st12" d="M1593.7,671.9l-2.6,17.9c-16.1,35.1-43.6,80.6-71.9,64.2c-13.4-7.8-29.7-9.6-45.9-8.3
			C1510.1,714.4,1593.7,671.9,1593.7,671.9z"/>
		<path class="st56" d="M1718.2,833.2l-0.6,17.9c-1,29.4-18,55.8-44.3,68.9l-17.9,8.9"/>
		<path class="st12" d="M1637.4,819.9l66.2-15.9c-1.4,2.3-43.9,72.7-101.2,104.6c5.4-17.1,7.6-35.3,2-51.5
			c-2.5-7.1-1.7-13.5,1.3-19.3C1617.8,829.7,1637.4,819.9,1637.4,819.9z"/>
		<path class="st3" d="M1895.1,592.9c-32.7,59.2-102.1,137.8-170.9,194.6c-8.3,6.8-17.1,13.8-26.3,20.8
			c-17.4,13.3-36.2,26.5-54.4,38.5c-6.6,4.3-13.2,8.5-19.6,12.5c-10.8,6.6-21.2,12.6-30.8,17.7c-9.6,5.1-21.5,2.7-28.4-5.7
			l-17.1-20.8l-15.5-18.8l-34.4-41.7c-6.9-8.4-7-20.5-0.2-29c22.6-28.1,56.7-62.6,89.5-91.7c7.9-7,15.7-13.7,23.3-20
			c68.8-56.8,159.2-110,223.5-130.8c35.9-11.6,63.7-13.1,75,0.5C1920.1,532.8,1913.4,559.8,1895.1,592.9z"/>
		<path class="st1" d="M1895.1,592.9c-32.7,59.2-102.1,137.8-170.9,194.6c-8.3,6.8-17.1,13.8-26.3,20.8
			c-52.8-38.1-86.8-91.6-105.2-127.6c-2.1-4-3.9-7.8-5.6-11.3c7.9-7,15.7-13.7,23.3-20c2.1-1.8,4.3-3.5,6.4-5.2
			c37.4-30.2,80.5-59.1,122.2-82.3c14.4-8,28.6-15.4,42.4-21.9c18.7-8.8,36.4-16.1,52.6-21.3c35.9-11.6,63.7-13.1,75,0.5
			C1920.1,532.8,1913.4,559.8,1895.1,592.9z"/>
		<g>
			<g>
				<path class="st64" d="M1749.4,867.8c0,0,0.4,2.8,0.5,7.3"/>
				<path class="st65" d="M1749.2,888.9c-2.6,19-12.9,44.9-48.4,52.3"/>
				<path class="st64" d="M1693.9,942.4c-2.3,0.3-4.8,0.5-7.3,0.7"/>
			</g>
		</g>
		<g>
			<g>
				<path class="st64" d="M1461.8,651c0,0-2.8-0.2-7.3,0"/>
				<path class="st65" d="M1440.7,652.8c-18.7,4-43.8,16.2-48.6,52.1"/>
				<path class="st64" d="M1391.5,711.9c-0.1,2.3-0.2,4.8-0.1,7.3"/>
			</g>
		</g>
		<circle class="st11" cx="1734" cy="663.4" r="53.7"/>
		<circle class="st4" cx="1734" cy="663.4" r="34.1"/>
		<path class="st3" d="M1911.4,555.6c-3.2,11.1-8.7,23.7-16.3,37.3c-16.5-3.6-31.9-12.5-43.5-26.6c-11.6-14-17.4-30.9-17.8-47.7
			c13.1-4.2,25.1-7.1,35.6-8.4c18.4-2.3,32.2,0.3,39.4,9C1915.5,527.2,1915.9,539.8,1911.4,555.6z"/>
		<path class="st47" d="M1523.4,873.7c-38.6,75.4-129.6,48.9-129.6,48.9s26.9-55.4,55.8-78c15.9-12.4,29.7-15.2,38.9-15.2
			L1523.4,873.7z"/>
		<path class="st56" d="M1841.6,550.7c0,0,16.9,37,53.6,42"/>
		<path class="st56" d="M1579.9,675.9c0,0-72.3,66.4-79.9,82.3"/>
		<path class="st12" d="M1705.3,803.6l-1.7,0.4c0,0,0-0.1,0-0.1L1705.3,803.6z"/>
		<polygon class="st47" points="1592.6,795 1547.6,850.6 1532.1,831.8 		"/>
		<path class="st12" d="M1513,856.2l-17.6,4.1l7.3-16.5l93.9-83c5.2-4.6,13.3-4,17.7,1.4l0,0c4.4,5.4,3.5,13.4-2,17.7L1513,856.2z"
			/>
		<line class="st56" x1="1598.3" y1="790.6" x2="1531.9" y2="838.6"/>
		<path class="st56" d="M1603.4,700.3c0,0,27.9,47,44.5,62.2"/>
		<path class="st56" d="M1503.2,649.1c0,0-26.2,10.2-58.1,58.7"/>
		<path class="st56" d="M1445.5,827.7c0,0-43.4,11.8-75.9,64.2"/>
		
			<ellipse transform="matrix(0.9973 -7.359523e-02 7.359523e-02 0.9973 -58.6669 101.5431)" class="st3" cx="1348.5" cy="846.8" rx="19.9" ry="12.2"/>
		
			<ellipse transform="matrix(0.1305 -0.9914 0.9914 0.1305 244.1203 2295.1536)" class="st3" cx="1430.6" cy="1008.4" rx="15.1" ry="9.3"/>
		<path class="st66" d="M1839.3,580.2c1.6,1.3,24.9,22.4,6.7,25.4s-43.8-10.5-34.8,13.9"/>
	</g>
	<line class="st56" x1="1845.4" y1="914.7" x2="1761.4" y2="1063.7"/>
	<path class="st56" d="M1563.6,1346.1c0,0,11.1,33.5,0,67.1"/>
	<line class="st56" x1="1478.3" y1="1364.9" x2="1528.3" y2="1362.5"/>
	<line class="st56" x1="1228.5" y1="1249.9" x2="1266.5" y2="1270.9"/>
</g>
</svg>
